<svg width="1542" height="504" viewBox="0 0 1542 504" fill="none" xmlns="http://www.w3.org/2000/svg">
<rect width="1542" height="504" fill="white"/>
<g filter="url(#filter0_b_2_31)">
<circle cx="1326" cy="52" r="30" fill="#EE6881" fill-opacity="0.14"/>
</g>
<g filter="url(#filter1_b_2_31)">
<circle cx="998" cy="466" r="20" fill="#4A6EE5" fill-opacity="0.12"/>
</g>
<circle cx="1468" cy="419" r="4" fill="#4A6EE5" fill-opacity="0.26"/>
<circle cx="1484" cy="419" r="4" fill="#4A6EE5" fill-opacity="0.26"/>
<circle cx="1500" cy="419" r="4" fill="#4A6EE5" fill-opacity="0.26"/>
<circle cx="1468" cy="437" r="4" fill="#4A6EE5" fill-opacity="0.26"/>
<circle cx="1484" cy="437" r="4" fill="#4A6EE5" fill-opacity="0.26"/>
<circle cx="1500" cy="437" r="4" fill="#4A6EE5" fill-opacity="0.26"/>
<circle cx="1468" cy="455" r="4" fill="#4A6EE5" fill-opacity="0.26"/>
<circle cx="1484" cy="455" r="4" fill="#4A6EE5" fill-opacity="0.26"/>
<circle cx="1500" cy="455" r="4" fill="#4A6EE5" fill-opacity="0.26"/>
<circle cx="1468" cy="473" r="4" fill="#4A6EE5" fill-opacity="0.26"/>
<circle cx="1484" cy="473" r="4" fill="#4A6EE5" fill-opacity="0.26"/>
<circle cx="1500" cy="473" r="4" fill="#4A6EE5" fill-opacity="0.26"/>
<circle cx="43" cy="436" r="4" fill="#4A6EE5" fill-opacity="0.26"/>
<circle cx="59" cy="436" r="4" fill="#4A6EE5" fill-opacity="0.26"/>
<circle cx="75" cy="436" r="4" fill="#4A6EE5" fill-opacity="0.26"/>
<circle cx="43" cy="454" r="4" fill="#4A6EE5" fill-opacity="0.26"/>
<circle cx="59" cy="454" r="4" fill="#4A6EE5" fill-opacity="0.26"/>
<circle cx="75" cy="454" r="4" fill="#4A6EE5" fill-opacity="0.26"/>
<circle cx="43" cy="472" r="4" fill="#4A6EE5" fill-opacity="0.26"/>
<circle cx="59" cy="472" r="4" fill="#4A6EE5" fill-opacity="0.26"/>
<circle cx="75" cy="472" r="4" fill="#4A6EE5" fill-opacity="0.26"/>
<circle cx="43" cy="490" r="4" fill="#4A6EE5" fill-opacity="0.26"/>
<circle cx="59" cy="490" r="4" fill="#4A6EE5" fill-opacity="0.26"/>
<circle cx="75" cy="490" r="4" fill="#4A6EE5" fill-opacity="0.26"/>
<defs>
<filter id="filter0_b_2_31" x="1292" y="18" width="68" height="68" filterUnits="userSpaceOnUse" color-interpolation-filters="sRGB">
<feFlood flood-opacity="0" result="BackgroundImageFix"/>
<feGaussianBlur in="BackgroundImageFix" stdDeviation="2"/>
<feComposite in2="SourceAlpha" operator="in" result="effect1_backgroundBlur_2_31"/>
<feBlend mode="normal" in="SourceGraphic" in2="effect1_backgroundBlur_2_31" result="shape"/>
</filter>
<filter id="filter1_b_2_31" x="974" y="442" width="48" height="48" filterUnits="userSpaceOnUse" color-interpolation-filters="sRGB">
<feFlood flood-opacity="0" result="BackgroundImageFix"/>
<feGaussianBlur in="BackgroundImageFix" stdDeviation="2"/>
<feComposite in2="SourceAlpha" operator="in" result="effect1_backgroundBlur_2_31"/>
<feBlend mode="normal" in="SourceGraphic" in2="effect1_backgroundBlur_2_31" result="shape"/>
</filter>
</defs>
</svg>
