<svg width="1323" height="531" viewBox="0 0 1323 531" fill="none" xmlns="http://www.w3.org/2000/svg">
<rect width="1311" height="531" fill="#F8F9FC"/>
<circle cx="4" cy="436" r="4" fill="#0052FF" fill-opacity="0.1"/>
<circle cx="4" cy="454" r="4" fill="#0052FF" fill-opacity="0.1"/>
<circle cx="4" cy="472" r="4" fill="#0052FF" fill-opacity="0.1"/>
<circle cx="4" cy="490" r="4" fill="#0052FF" fill-opacity="0.1"/>
<circle cx="4" cy="508" r="4" fill="#0052FF" fill-opacity="0.1"/>
<circle cx="20" cy="436" r="4" fill="#0052FF" fill-opacity="0.1"/>
<circle cx="20" cy="454" r="4" fill="#0052FF" fill-opacity="0.1"/>
<circle cx="20" cy="472" r="4" fill="#0052FF" fill-opacity="0.1"/>
<circle cx="20" cy="490" r="4" fill="#0052FF" fill-opacity="0.1"/>
<circle cx="20" cy="508" r="4" fill="#0052FF" fill-opacity="0.1"/>
<circle cx="36" cy="436" r="4" fill="#0052FF" fill-opacity="0.1"/>
<circle cx="36" cy="454" r="4" fill="#0052FF" fill-opacity="0.1"/>
<circle cx="36" cy="472" r="4" fill="#0052FF" fill-opacity="0.1"/>
<circle cx="36" cy="490" r="4" fill="#0052FF" fill-opacity="0.1"/>
<circle cx="36" cy="508" r="4" fill="#0052FF" fill-opacity="0.1"/>
<circle cx="52" cy="436" r="4" fill="#0052FF" fill-opacity="0.1"/>
<circle cx="52" cy="454" r="4" fill="#0052FF" fill-opacity="0.1"/>
<circle cx="52" cy="472" r="4" fill="#0052FF" fill-opacity="0.1"/>
<circle cx="52" cy="490" r="4" fill="#0052FF" fill-opacity="0.1"/>
<circle cx="52" cy="508" r="4" fill="#0052FF" fill-opacity="0.1"/>
<path d="M1207.42 60.1223L1285.87 0L1305.8 57.6055L1238 113.086L1207.42 60.1223Z" fill="#0052FF" fill-opacity="0.22"/>
</svg>
