<svg width="1625" height="646" viewBox="0 0 1625 646" fill="none" xmlns="http://www.w3.org/2000/svg">
<rect width="1625" height="646" fill="#F8F9FC"/>
<ellipse cx="32.661" cy="79.4635" rx="2.5" ry="2.62469" transform="rotate(26.4507 32.661 79.4635)" fill="#0B50FF"/>
<ellipse cx="13.1582" cy="118.665" rx="2.5" ry="2.62469" transform="rotate(26.4507 13.1582 118.665)" fill="#0B50FF"/>
<ellipse cx="66.1369" cy="96.1183" rx="2.5" ry="2.62469" transform="rotate(26.4507 66.1369 96.1183)" fill="#0B50FF"/>
<ellipse cx="46.6341" cy="135.319" rx="2.5" ry="2.62469" transform="rotate(26.4507 46.6341 135.319)" fill="#0B50FF"/>
<ellipse cx="99.6129" cy="112.773" rx="2.5" ry="2.62469" transform="rotate(26.4507 99.6129 112.773)" fill="#0B50FF"/>
<ellipse cx="80.1101" cy="151.974" rx="2.5" ry="2.62469" transform="rotate(26.4507 80.1101 151.974)" fill="#0B50FF"/>
<ellipse cx="22.9096" cy="99.0641" rx="2.5" ry="2.62469" transform="rotate(26.4507 22.9096 99.0641)" fill="#0B50FF"/>
<ellipse cx="3.40695" cy="138.265" rx="2.5" ry="2.62469" transform="rotate(26.4507 3.40695 138.265)" fill="#0B50FF"/>
<ellipse cx="56.3856" cy="115.718" rx="2.5" ry="2.62469" transform="rotate(26.4507 56.3856 115.718)" fill="#0B50FF"/>
<ellipse cx="36.8829" cy="154.919" rx="2.5" ry="2.62469" transform="rotate(26.4507 36.8829 154.919)" fill="#0B50FF"/>
<ellipse cx="89.8615" cy="132.373" rx="2.5" ry="2.62469" transform="rotate(26.4507 89.8615 132.373)" fill="#0B50FF"/>
<ellipse cx="70.3589" cy="171.574" rx="2.5" ry="2.62469" transform="rotate(26.4507 70.3589 171.574)" fill="#0B50FF"/>
<ellipse cx="49.399" cy="87.7906" rx="2.5" ry="2.62469" transform="rotate(26.4507 49.399 87.7906)" fill="#0B50FF"/>
<ellipse cx="29.8962" cy="126.992" rx="2.5" ry="2.62469" transform="rotate(26.4507 29.8962 126.992)" fill="#0B50FF"/>
<ellipse cx="82.875" cy="104.445" rx="2.5" ry="2.62469" transform="rotate(26.4507 82.875 104.445)" fill="#0B50FF"/>
<ellipse cx="63.3722" cy="143.646" rx="2.5" ry="2.62469" transform="rotate(26.4507 63.3722 143.646)" fill="#0B50FF"/>
<ellipse cx="116.351" cy="121.1" rx="2.5" ry="2.62469" transform="rotate(26.4507 116.351 121.1)" fill="#0B50FF"/>
<ellipse cx="96.8481" cy="160.301" rx="2.5" ry="2.62469" transform="rotate(26.4507 96.8481 160.301)" fill="#0B50FF"/>
<ellipse cx="39.6477" cy="107.391" rx="2.5" ry="2.62469" transform="rotate(26.4507 39.6477 107.391)" fill="#0B50FF"/>
<ellipse cx="20.145" cy="146.592" rx="2.5" ry="2.62469" transform="rotate(26.4507 20.145 146.592)" fill="#0B50FF"/>
<ellipse cx="73.1236" cy="124.046" rx="2.5" ry="2.62469" transform="rotate(26.4507 73.1236 124.046)" fill="#0B50FF"/>
<ellipse cx="53.6209" cy="163.247" rx="2.5" ry="2.62469" transform="rotate(26.4507 53.6209 163.247)" fill="#0B50FF"/>
<ellipse cx="106.6" cy="140.7" rx="2.5" ry="2.62469" transform="rotate(26.4507 106.6 140.7)" fill="#0B50FF"/>
<ellipse cx="87.0969" cy="179.901" rx="2.5" ry="2.62469" transform="rotate(26.4507 87.0969 179.901)" fill="#0B50FF"/>
<ellipse cx="1497.62" cy="531.857" rx="2.5" ry="2.62469" transform="rotate(-45.1184 1497.62 531.857)" fill="#E3297E"/>
<ellipse cx="1528.65" cy="562.753" rx="2.5" ry="2.62469" transform="rotate(-45.1184 1528.65 562.753)" fill="#E3297E"/>
<ellipse cx="1524.01" cy="505.363" rx="2.5" ry="2.62469" transform="rotate(-45.1184 1524.01 505.363)" fill="#E3297E"/>
<ellipse cx="1555.03" cy="536.259" rx="2.5" ry="2.62469" transform="rotate(-45.1184 1555.03 536.259)" fill="#E3297E"/>
<ellipse cx="1550.39" cy="478.87" rx="2.5" ry="2.62469" transform="rotate(-45.1184 1550.39 478.87)" fill="#E3297E"/>
<ellipse cx="1581.42" cy="509.766" rx="2.5" ry="2.62469" transform="rotate(-45.1184 1581.42 509.766)" fill="#E3297E"/>
<ellipse cx="1513.14" cy="547.305" rx="2.5" ry="2.62469" transform="rotate(-45.1184 1513.14 547.305)" fill="#E3297E"/>
<ellipse cx="1544.16" cy="578.201" rx="2.5" ry="2.62469" transform="rotate(-45.1184 1544.16 578.201)" fill="#E3297E"/>
<ellipse cx="1539.52" cy="520.811" rx="2.5" ry="2.62469" transform="rotate(-45.1184 1539.52 520.811)" fill="#E3297E"/>
<ellipse cx="1570.54" cy="551.707" rx="2.5" ry="2.62469" transform="rotate(-45.1184 1570.54 551.707)" fill="#E3297E"/>
<ellipse cx="1565.9" cy="494.318" rx="2.5" ry="2.62469" transform="rotate(-45.1184 1565.9 494.318)" fill="#E3297E"/>
<ellipse cx="1596.93" cy="525.214" rx="2.5" ry="2.62469" transform="rotate(-45.1184 1596.93 525.214)" fill="#E3297E"/>
<ellipse cx="1510.82" cy="518.61" rx="2.5" ry="2.62469" transform="rotate(-45.1184 1510.82 518.61)" fill="#E3297E"/>
<ellipse cx="1541.84" cy="549.506" rx="2.5" ry="2.62469" transform="rotate(-45.1184 1541.84 549.506)" fill="#E3297E"/>
<ellipse cx="1537.2" cy="492.117" rx="2.5" ry="2.62469" transform="rotate(-45.1184 1537.2 492.117)" fill="#E3297E"/>
<ellipse cx="1568.22" cy="523.013" rx="2.5" ry="2.62469" transform="rotate(-45.1184 1568.22 523.013)" fill="#E3297E"/>
<ellipse cx="1563.58" cy="465.623" rx="2.5" ry="2.62469" transform="rotate(-45.1184 1563.58 465.623)" fill="#E3297E"/>
<ellipse cx="1594.61" cy="496.52" rx="2.5" ry="2.62469" transform="rotate(-45.1184 1594.61 496.52)" fill="#E3297E"/>
<ellipse cx="1526.33" cy="534.058" rx="2.5" ry="2.62469" transform="rotate(-45.1184 1526.33 534.058)" fill="#E3297E"/>
<ellipse cx="1557.35" cy="564.954" rx="2.5" ry="2.62469" transform="rotate(-45.1184 1557.35 564.954)" fill="#E3297E"/>
<ellipse cx="1552.71" cy="507.565" rx="2.5" ry="2.62469" transform="rotate(-45.1184 1552.71 507.565)" fill="#E3297E"/>
<ellipse cx="1583.74" cy="538.461" rx="2.5" ry="2.62469" transform="rotate(-45.1184 1583.74 538.461)" fill="#E3297E"/>
<ellipse cx="1579.1" cy="481.071" rx="2.5" ry="2.62469" transform="rotate(-45.1184 1579.1 481.071)" fill="#E3297E"/>
<ellipse cx="1610.12" cy="511.967" rx="2.5" ry="2.62469" transform="rotate(-45.1184 1610.12 511.967)" fill="#E3297E"/>
</svg>
