<svg width="1102" height="472" viewBox="0 0 1102 472" fill="none" xmlns="http://www.w3.org/2000/svg">
<g filter="url(#filter0_d_12_174)">
<rect x="26" y="26" width="1042" height="412" rx="12" fill="white"/>
</g>
<path d="M85.256 400.52V405H83.112V400.52L78.896 393.432H80.792C80.9787 393.432 81.1253 393.477 81.232 393.568C81.344 393.659 81.4373 393.773 81.512 393.912L83.624 397.776C83.7467 398.005 83.8533 398.221 83.944 398.424C84.04 398.627 84.1253 398.829 84.2 399.032C84.2693 398.829 84.3493 398.627 84.44 398.424C84.5307 398.221 84.6347 398.005 84.752 397.776L86.856 393.912C86.9147 393.795 87.0027 393.685 87.12 393.584C87.2373 393.483 87.3867 393.432 87.568 393.432H89.472L85.256 400.52ZM93.5065 399.952C93.5065 399.696 93.4692 399.456 93.3945 399.232C93.3252 399.003 93.2185 398.803 93.0745 398.632C92.9305 398.461 92.7465 398.328 92.5225 398.232C92.3038 398.131 92.0478 398.08 91.7545 398.08C91.1838 398.08 90.7332 398.243 90.4025 398.568C90.0772 398.893 89.8692 399.355 89.7785 399.952H93.5065ZM89.7385 401.144C89.7705 401.565 89.8452 401.931 89.9625 402.24C90.0798 402.544 90.2345 402.797 90.4265 403C90.6185 403.197 90.8452 403.347 91.1065 403.448C91.3732 403.544 91.6665 403.592 91.9865 403.592C92.3065 403.592 92.5812 403.555 92.8105 403.48C93.0452 403.405 93.2478 403.323 93.4185 403.232C93.5945 403.141 93.7465 403.059 93.8745 402.984C94.0078 402.909 94.1358 402.872 94.2585 402.872C94.4238 402.872 94.5465 402.933 94.6265 403.056L95.1945 403.776C94.9758 404.032 94.7305 404.248 94.4585 404.424C94.1865 404.595 93.9012 404.733 93.6025 404.84C93.3092 404.941 93.0078 405.013 92.6985 405.056C92.3945 405.099 92.0985 405.12 91.8105 405.12C91.2398 405.12 90.7092 405.027 90.2185 404.84C89.7278 404.648 89.3012 404.368 88.9385 404C88.5758 403.627 88.2905 403.168 88.0825 402.624C87.8745 402.075 87.7705 401.44 87.7705 400.72C87.7705 400.16 87.8612 399.635 88.0425 399.144C88.2238 398.648 88.4825 398.219 88.8185 397.856C89.1598 397.488 89.5732 397.197 90.0585 396.984C90.5492 396.771 91.1012 396.664 91.7145 396.664C92.2318 396.664 92.7092 396.747 93.1465 396.912C93.5838 397.077 93.9598 397.32 94.2745 397.64C94.5892 397.955 94.8345 398.344 95.0105 398.808C95.1918 399.267 95.2825 399.792 95.2825 400.384C95.2825 400.683 95.2505 400.885 95.1865 400.992C95.1225 401.093 94.9998 401.144 94.8185 401.144H89.7385ZM100.781 401.496C100.211 401.523 99.7307 401.573 99.3414 401.648C98.952 401.717 98.64 401.808 98.4054 401.92C98.1707 402.032 98.0027 402.163 97.9014 402.312C97.8 402.461 97.7494 402.624 97.7494 402.8C97.7494 403.147 97.8507 403.395 98.0534 403.544C98.2614 403.693 98.5307 403.768 98.8614 403.768C99.2667 403.768 99.616 403.696 99.9094 403.552C100.208 403.403 100.499 403.179 100.781 402.88V401.496ZM96.2534 397.936C97.1974 397.072 98.3334 396.64 99.6614 396.64C100.141 396.64 100.571 396.72 100.949 396.88C101.328 397.035 101.648 397.253 101.909 397.536C102.171 397.813 102.368 398.147 102.501 398.536C102.64 398.925 102.709 399.352 102.709 399.816V405H101.813C101.627 405 101.483 404.973 101.381 404.92C101.28 404.861 101.2 404.747 101.141 404.576L100.965 403.984C100.757 404.171 100.555 404.336 100.357 404.48C100.16 404.619 99.9547 404.736 99.7414 404.832C99.528 404.928 99.2987 405 99.0534 405.048C98.8134 405.101 98.5467 405.128 98.2534 405.128C97.9067 405.128 97.5867 405.083 97.2934 404.992C97 404.896 96.7467 404.755 96.5334 404.568C96.32 404.381 96.1547 404.149 96.0374 403.872C95.92 403.595 95.8614 403.272 95.8614 402.904C95.8614 402.696 95.896 402.491 95.9654 402.288C96.0347 402.08 96.1467 401.883 96.3014 401.696C96.4614 401.509 96.6667 401.333 96.9174 401.168C97.168 401.003 97.4747 400.859 97.8374 400.736C98.2054 400.613 98.632 400.515 99.1174 400.44C99.6027 400.36 100.157 400.312 100.781 400.296V399.816C100.781 399.267 100.664 398.861 100.429 398.6C100.195 398.333 99.856 398.2 99.4134 398.2C99.0934 398.2 98.8267 398.237 98.6134 398.312C98.4054 398.387 98.2214 398.472 98.0614 398.568C97.9014 398.659 97.7547 398.741 97.6214 398.816C97.4934 398.891 97.3494 398.928 97.1894 398.928C97.0507 398.928 96.9334 398.893 96.8374 398.824C96.7414 398.749 96.664 398.664 96.6054 398.568L96.2534 397.936ZM106.114 398.216C106.37 397.725 106.674 397.341 107.026 397.064C107.378 396.781 107.794 396.64 108.274 396.64C108.653 396.64 108.957 396.723 109.186 396.888L109.058 398.368C109.032 398.464 108.992 398.533 108.938 398.576C108.89 398.613 108.824 398.632 108.738 398.632C108.658 398.632 108.538 398.619 108.378 398.592C108.224 398.565 108.072 398.552 107.922 398.552C107.704 398.552 107.509 398.584 107.338 398.648C107.168 398.712 107.013 398.805 106.874 398.928C106.741 399.045 106.621 399.189 106.514 399.36C106.413 399.531 106.317 399.725 106.226 399.944V405H104.25V396.792H105.41C105.613 396.792 105.754 396.829 105.834 396.904C105.914 396.973 105.968 397.101 105.994 397.288L106.114 398.216ZM115.398 397.632C115.654 397.579 115.899 397.541 116.134 397.52C116.369 397.493 116.595 397.48 116.814 397.48C117.422 397.48 117.958 397.571 118.422 397.752C118.886 397.933 119.275 398.184 119.59 398.504C119.905 398.824 120.142 399.2 120.302 399.632C120.462 400.059 120.542 400.52 120.542 401.016C120.542 401.629 120.433 402.189 120.214 402.696C120.001 403.203 119.702 403.637 119.318 404C118.934 404.357 118.478 404.635 117.95 404.832C117.427 405.029 116.857 405.128 116.238 405.128C115.875 405.128 115.531 405.091 115.206 405.016C114.881 404.941 114.574 404.843 114.286 404.72C114.003 404.592 113.739 404.448 113.494 404.288C113.254 404.123 113.038 403.949 112.846 403.768L113.454 402.928C113.582 402.747 113.75 402.656 113.958 402.656C114.091 402.656 114.227 402.699 114.366 402.784C114.505 402.869 114.662 402.963 114.838 403.064C115.019 403.165 115.23 403.259 115.47 403.344C115.715 403.429 116.009 403.472 116.35 403.472C116.713 403.472 117.033 403.413 117.31 403.296C117.587 403.179 117.817 403.016 117.998 402.808C118.185 402.595 118.323 402.344 118.414 402.056C118.51 401.763 118.558 401.445 118.558 401.104C118.558 400.475 118.374 399.984 118.006 399.632C117.643 399.275 117.105 399.096 116.39 399.096C115.841 399.096 115.278 399.197 114.702 399.4L113.47 399.048L114.43 393.432H120.142V394.272C120.142 394.555 120.054 394.784 119.878 394.96C119.702 395.136 119.403 395.224 118.982 395.224H115.806L115.398 397.632Z" fill="#254AC7"/>
<path d="M976.368 395.2H972.88V405H970.728V395.2H967.24V393.432H976.368V395.2ZM978.96 396.664C979.568 396.664 980.12 396.763 980.616 396.96C981.117 397.157 981.544 397.437 981.896 397.8C982.253 398.163 982.528 398.605 982.72 399.128C982.912 399.651 983.008 400.235 983.008 400.88C983.008 401.531 982.912 402.117 982.72 402.64C982.528 403.163 982.253 403.608 981.896 403.976C981.544 404.344 981.117 404.627 980.616 404.824C980.12 405.021 979.568 405.12 978.96 405.12C978.347 405.12 977.789 405.021 977.288 404.824C976.787 404.627 976.357 404.344 976 403.976C975.648 403.608 975.373 403.163 975.176 402.64C974.984 402.117 974.888 401.531 974.888 400.88C974.888 400.235 974.984 399.651 975.176 399.128C975.373 398.605 975.648 398.163 976 397.8C976.357 397.437 976.787 397.157 977.288 396.96C977.789 396.763 978.347 396.664 978.96 396.664ZM978.96 403.6C979.643 403.6 980.147 403.371 980.472 402.912C980.803 402.453 980.968 401.781 980.968 400.896C980.968 400.011 980.803 399.336 980.472 398.872C980.147 398.408 979.643 398.176 978.96 398.176C978.267 398.176 977.752 398.411 977.416 398.88C977.085 399.344 976.92 400.016 976.92 400.896C976.92 401.776 977.085 402.448 977.416 402.912C977.752 403.371 978.267 403.6 978.96 403.6ZM989.347 398.888C989.123 398.616 988.878 398.424 988.611 398.312C988.35 398.2 988.067 398.144 987.763 398.144C987.465 398.144 987.195 398.2 986.955 398.312C986.715 398.424 986.51 398.595 986.339 398.824C986.169 399.048 986.038 399.336 985.947 399.688C985.857 400.035 985.811 400.445 985.811 400.92C985.811 401.4 985.849 401.808 985.923 402.144C986.003 402.475 986.115 402.747 986.259 402.96C986.403 403.168 986.579 403.32 986.787 403.416C986.995 403.507 987.227 403.552 987.483 403.552C987.894 403.552 988.243 403.467 988.531 403.296C988.819 403.125 989.091 402.883 989.347 402.568V398.888ZM991.323 393.112V405H990.115C989.854 405 989.689 404.88 989.619 404.64L989.451 403.848C989.121 404.227 988.739 404.533 988.307 404.768C987.881 405.003 987.382 405.12 986.811 405.12C986.363 405.12 985.953 405.027 985.579 404.84C985.206 404.653 984.883 404.384 984.611 404.032C984.345 403.675 984.137 403.235 983.987 402.712C983.843 402.189 983.771 401.592 983.771 400.92C983.771 400.312 983.854 399.747 984.019 399.224C984.185 398.701 984.422 398.248 984.731 397.864C985.041 397.48 985.411 397.181 985.843 396.968C986.275 396.749 986.761 396.64 987.299 396.64C987.758 396.64 988.15 396.712 988.475 396.856C988.801 397 989.091 397.195 989.347 397.44V393.112H991.323ZM997.29 401.496C996.719 401.523 996.239 401.573 995.85 401.648C995.46 401.717 995.148 401.808 994.914 401.92C994.679 402.032 994.511 402.163 994.41 402.312C994.308 402.461 994.258 402.624 994.258 402.8C994.258 403.147 994.359 403.395 994.562 403.544C994.77 403.693 995.039 403.768 995.37 403.768C995.775 403.768 996.124 403.696 996.418 403.552C996.716 403.403 997.007 403.179 997.29 402.88V401.496ZM992.762 397.936C993.706 397.072 994.842 396.64 996.17 396.64C996.65 396.64 997.079 396.72 997.458 396.88C997.836 397.035 998.156 397.253 998.418 397.536C998.679 397.813 998.876 398.147 999.01 398.536C999.148 398.925 999.218 399.352 999.218 399.816V405H998.322C998.135 405 997.991 404.973 997.89 404.92C997.788 404.861 997.708 404.747 997.65 404.576L997.474 403.984C997.266 404.171 997.063 404.336 996.866 404.48C996.668 404.619 996.463 404.736 996.25 404.832C996.036 404.928 995.807 405 995.562 405.048C995.322 405.101 995.055 405.128 994.762 405.128C994.415 405.128 994.095 405.083 993.802 404.992C993.508 404.896 993.255 404.755 993.042 404.568C992.828 404.381 992.663 404.149 992.546 403.872C992.428 403.595 992.37 403.272 992.37 402.904C992.37 402.696 992.404 402.491 992.474 402.288C992.543 402.08 992.655 401.883 992.81 401.696C992.97 401.509 993.175 401.333 993.426 401.168C993.676 401.003 993.983 400.859 994.346 400.736C994.714 400.613 995.14 400.515 995.626 400.44C996.111 400.36 996.666 400.312 997.29 400.296V399.816C997.29 399.267 997.172 398.861 996.938 398.6C996.703 398.333 996.364 398.2 995.922 398.2C995.602 398.2 995.335 398.237 995.122 398.312C994.914 398.387 994.73 398.472 994.57 398.568C994.41 398.659 994.263 398.741 994.13 398.816C994.002 398.891 993.858 398.928 993.698 398.928C993.559 398.928 993.442 398.893 993.346 398.824C993.25 398.749 993.172 398.664 993.114 398.568L992.762 397.936ZM1007.98 396.792L1003.51 407.256C1003.45 407.395 1003.37 407.499 1003.28 407.568C1003.19 407.643 1003.04 407.68 1002.85 407.68H1001.38L1002.92 404.384L999.596 396.792H1001.33C1001.49 396.792 1001.61 396.829 1001.69 396.904C1001.78 396.979 1001.85 397.064 1001.89 397.16L1003.64 401.416C1003.69 401.56 1003.74 401.704 1003.78 401.848C1003.82 401.992 1003.86 402.139 1003.9 402.288C1003.95 402.139 1004 401.992 1004.04 401.848C1004.09 401.699 1004.15 401.552 1004.2 401.408L1005.85 397.16C1005.89 397.053 1005.96 396.965 1006.06 396.896C1006.16 396.827 1006.27 396.792 1006.4 396.792H1007.98Z" fill="#254AC7"/>
<path d="M787.848 400.16C788.061 400.16 788.229 400.221 788.352 400.344C788.48 400.461 788.544 400.619 788.544 400.816V402H780.608V401.344C780.608 401.211 780.635 401.072 780.688 400.928C780.747 400.779 780.837 400.645 780.96 400.528L784.472 397.008C784.765 396.709 785.027 396.424 785.256 396.152C785.491 395.88 785.685 395.611 785.84 395.344C785.995 395.077 786.112 394.808 786.192 394.536C786.277 394.259 786.32 393.968 786.32 393.664C786.32 393.387 786.28 393.144 786.2 392.936C786.12 392.723 786.005 392.544 785.856 392.4C785.712 392.256 785.536 392.149 785.328 392.08C785.125 392.005 784.896 391.968 784.64 391.968C784.405 391.968 784.187 392.003 783.984 392.072C783.787 392.136 783.611 392.229 783.456 392.352C783.301 392.469 783.171 392.608 783.064 392.768C782.957 392.928 782.877 393.104 782.824 393.296C782.733 393.541 782.616 393.704 782.472 393.784C782.328 393.864 782.12 393.883 781.848 393.84L780.808 393.656C780.888 393.101 781.043 392.616 781.272 392.2C781.501 391.779 781.787 391.429 782.128 391.152C782.475 390.869 782.869 390.659 783.312 390.52C783.76 390.376 784.24 390.304 784.752 390.304C785.285 390.304 785.773 390.384 786.216 390.544C786.659 390.699 787.037 390.92 787.352 391.208C787.667 391.496 787.912 391.843 788.088 392.248C788.264 392.653 788.352 393.104 788.352 393.6C788.352 394.027 788.288 394.421 788.16 394.784C788.037 395.147 787.869 395.493 787.656 395.824C787.448 396.155 787.203 396.475 786.92 396.784C786.637 397.093 786.341 397.408 786.032 397.728L783.424 400.392C783.675 400.317 783.923 400.261 784.168 400.224C784.419 400.181 784.656 400.16 784.88 400.16H787.848ZM797.841 396.216C797.841 397.224 797.732 398.101 797.513 398.848C797.3 399.589 797.001 400.203 796.617 400.688C796.239 401.173 795.788 401.536 795.265 401.776C794.748 402.011 794.188 402.128 793.585 402.128C792.983 402.128 792.423 402.011 791.905 401.776C791.393 401.536 790.948 401.173 790.569 400.688C790.191 400.203 789.895 399.589 789.681 398.848C789.468 398.101 789.361 397.224 789.361 396.216C789.361 395.203 789.468 394.325 789.681 393.584C789.895 392.843 790.191 392.229 790.569 391.744C790.948 391.259 791.393 390.899 791.905 390.664C792.423 390.424 792.983 390.304 793.585 390.304C794.188 390.304 794.748 390.424 795.265 390.664C795.788 390.899 796.239 391.259 796.617 391.744C797.001 392.229 797.3 392.843 797.513 393.584C797.732 394.325 797.841 395.203 797.841 396.216ZM795.801 396.216C795.801 395.379 795.74 394.685 795.617 394.136C795.495 393.587 795.329 393.149 795.121 392.824C794.919 392.499 794.684 392.272 794.417 392.144C794.151 392.011 793.873 391.944 793.585 391.944C793.303 391.944 793.028 392.011 792.761 392.144C792.5 392.272 792.268 392.499 792.065 392.824C791.863 393.149 791.7 393.587 791.577 394.136C791.46 394.685 791.401 395.379 791.401 396.216C791.401 397.053 791.46 397.747 791.577 398.296C791.7 398.845 791.863 399.283 792.065 399.608C792.268 399.933 792.5 400.163 792.761 400.296C793.028 400.424 793.303 400.488 793.585 400.488C793.873 400.488 794.151 400.424 794.417 400.296C794.684 400.163 794.919 399.933 795.121 399.608C795.329 399.283 795.495 398.845 795.617 398.296C795.74 397.747 795.801 397.053 795.801 396.216ZM805.771 400.16C805.984 400.16 806.152 400.221 806.275 400.344C806.403 400.461 806.467 400.619 806.467 400.816V402H798.531V401.344C798.531 401.211 798.557 401.072 798.611 400.928C798.669 400.779 798.76 400.645 798.883 400.528L802.395 397.008C802.688 396.709 802.949 396.424 803.179 396.152C803.413 395.88 803.608 395.611 803.763 395.344C803.917 395.077 804.035 394.808 804.115 394.536C804.2 394.259 804.243 393.968 804.243 393.664C804.243 393.387 804.203 393.144 804.123 392.936C804.043 392.723 803.928 392.544 803.779 392.4C803.635 392.256 803.459 392.149 803.251 392.08C803.048 392.005 802.819 391.968 802.563 391.968C802.328 391.968 802.109 392.003 801.907 392.072C801.709 392.136 801.533 392.229 801.379 392.352C801.224 392.469 801.093 392.608 800.987 392.768C800.88 392.928 800.8 393.104 800.747 393.296C800.656 393.541 800.539 393.704 800.395 393.784C800.251 393.864 800.043 393.883 799.771 393.84L798.731 393.656C798.811 393.101 798.965 392.616 799.195 392.2C799.424 391.779 799.709 391.429 800.051 391.152C800.397 390.869 800.792 390.659 801.235 390.52C801.683 390.376 802.163 390.304 802.675 390.304C803.208 390.304 803.696 390.384 804.139 390.544C804.581 390.699 804.96 390.92 805.275 391.208C805.589 391.496 805.835 391.843 806.011 392.248C806.187 392.653 806.275 393.104 806.275 393.6C806.275 394.027 806.211 394.421 806.083 394.784C805.96 395.147 805.792 395.493 805.579 395.824C805.371 396.155 805.125 396.475 804.843 396.784C804.56 397.093 804.264 397.408 803.955 397.728L801.347 400.392C801.597 400.317 801.845 400.261 802.091 400.224C802.341 400.181 802.579 400.16 802.803 400.16H805.771ZM815.164 400.52V402H808.764V400.52H811.108V393.776C811.108 393.509 811.116 393.235 811.132 392.952L809.468 394.344C809.372 394.419 809.276 394.467 809.18 394.488C809.089 394.504 809.001 394.504 808.916 394.488C808.836 394.472 808.764 394.445 808.7 394.408C808.636 394.365 808.588 394.32 808.556 394.272L807.932 393.416L811.46 390.416H813.084V400.52H815.164Z" fill="#254AC7"/>
<path d="M603.848 403.16C604.061 403.16 604.229 403.221 604.352 403.344C604.48 403.461 604.544 403.619 604.544 403.816V405H596.608V404.344C596.608 404.211 596.635 404.072 596.688 403.928C596.747 403.779 596.837 403.645 596.96 403.528L600.472 400.008C600.765 399.709 601.027 399.424 601.256 399.152C601.491 398.88 601.685 398.611 601.84 398.344C601.995 398.077 602.112 397.808 602.192 397.536C602.277 397.259 602.32 396.968 602.32 396.664C602.32 396.387 602.28 396.144 602.2 395.936C602.12 395.723 602.005 395.544 601.856 395.4C601.712 395.256 601.536 395.149 601.328 395.08C601.125 395.005 600.896 394.968 600.64 394.968C600.405 394.968 600.187 395.003 599.984 395.072C599.787 395.136 599.611 395.229 599.456 395.352C599.301 395.469 599.171 395.608 599.064 395.768C598.957 395.928 598.877 396.104 598.824 396.296C598.733 396.541 598.616 396.704 598.472 396.784C598.328 396.864 598.12 396.883 597.848 396.84L596.808 396.656C596.888 396.101 597.043 395.616 597.272 395.2C597.501 394.779 597.787 394.429 598.128 394.152C598.475 393.869 598.869 393.659 599.312 393.52C599.76 393.376 600.24 393.304 600.752 393.304C601.285 393.304 601.773 393.384 602.216 393.544C602.659 393.699 603.037 393.92 603.352 394.208C603.667 394.496 603.912 394.843 604.088 395.248C604.264 395.653 604.352 396.104 604.352 396.6C604.352 397.027 604.288 397.421 604.16 397.784C604.037 398.147 603.869 398.493 603.656 398.824C603.448 399.155 603.203 399.475 602.92 399.784C602.637 400.093 602.341 400.408 602.032 400.728L599.424 403.392C599.675 403.317 599.923 403.261 600.168 403.224C600.419 403.181 600.656 403.16 600.88 403.16H603.848ZM613.841 399.216C613.841 400.224 613.732 401.101 613.513 401.848C613.3 402.589 613.001 403.203 612.617 403.688C612.239 404.173 611.788 404.536 611.265 404.776C610.748 405.011 610.188 405.128 609.585 405.128C608.983 405.128 608.423 405.011 607.905 404.776C607.393 404.536 606.948 404.173 606.569 403.688C606.191 403.203 605.895 402.589 605.681 401.848C605.468 401.101 605.361 400.224 605.361 399.216C605.361 398.203 605.468 397.325 605.681 396.584C605.895 395.843 606.191 395.229 606.569 394.744C606.948 394.259 607.393 393.899 607.905 393.664C608.423 393.424 608.983 393.304 609.585 393.304C610.188 393.304 610.748 393.424 611.265 393.664C611.788 393.899 612.239 394.259 612.617 394.744C613.001 395.229 613.3 395.843 613.513 396.584C613.732 397.325 613.841 398.203 613.841 399.216ZM611.801 399.216C611.801 398.379 611.74 397.685 611.617 397.136C611.495 396.587 611.329 396.149 611.121 395.824C610.919 395.499 610.684 395.272 610.417 395.144C610.151 395.011 609.873 394.944 609.585 394.944C609.303 394.944 609.028 395.011 608.761 395.144C608.5 395.272 608.268 395.499 608.065 395.824C607.863 396.149 607.7 396.587 607.577 397.136C607.46 397.685 607.401 398.379 607.401 399.216C607.401 400.053 607.46 400.747 607.577 401.296C607.7 401.845 607.863 402.283 608.065 402.608C608.268 402.933 608.5 403.163 608.761 403.296C609.028 403.424 609.303 403.488 609.585 403.488C609.873 403.488 610.151 403.424 610.417 403.296C610.684 403.163 610.919 402.933 611.121 402.608C611.329 402.283 611.495 401.845 611.617 401.296C611.74 400.747 611.801 400.053 611.801 399.216ZM621.771 403.16C621.984 403.16 622.152 403.221 622.275 403.344C622.403 403.461 622.467 403.619 622.467 403.816V405H614.531V404.344C614.531 404.211 614.557 404.072 614.611 403.928C614.669 403.779 614.76 403.645 614.883 403.528L618.395 400.008C618.688 399.709 618.949 399.424 619.179 399.152C619.413 398.88 619.608 398.611 619.763 398.344C619.917 398.077 620.035 397.808 620.115 397.536C620.2 397.259 620.243 396.968 620.243 396.664C620.243 396.387 620.203 396.144 620.123 395.936C620.043 395.723 619.928 395.544 619.779 395.4C619.635 395.256 619.459 395.149 619.251 395.08C619.048 395.005 618.819 394.968 618.563 394.968C618.328 394.968 618.109 395.003 617.907 395.072C617.709 395.136 617.533 395.229 617.379 395.352C617.224 395.469 617.093 395.608 616.987 395.768C616.88 395.928 616.8 396.104 616.747 396.296C616.656 396.541 616.539 396.704 616.395 396.784C616.251 396.864 616.043 396.883 615.771 396.84L614.731 396.656C614.811 396.101 614.965 395.616 615.195 395.2C615.424 394.779 615.709 394.429 616.051 394.152C616.397 393.869 616.792 393.659 617.235 393.52C617.683 393.376 618.163 393.304 618.675 393.304C619.208 393.304 619.696 393.384 620.139 393.544C620.581 393.699 620.96 393.92 621.275 394.208C621.589 394.496 621.835 394.843 622.011 395.248C622.187 395.653 622.275 396.104 622.275 396.6C622.275 397.027 622.211 397.421 622.083 397.784C621.96 398.147 621.792 398.493 621.579 398.824C621.371 399.155 621.125 399.475 620.843 399.784C620.56 400.093 620.264 400.408 619.955 400.728L617.347 403.392C617.597 403.317 617.845 403.261 618.091 403.224C618.341 403.181 618.579 403.16 618.803 403.16H621.771ZM631.764 399.216C631.764 400.224 631.654 401.101 631.436 401.848C631.222 402.589 630.924 403.203 630.54 403.688C630.161 404.173 629.71 404.536 629.188 404.776C628.67 405.011 628.11 405.128 627.508 405.128C626.905 405.128 626.345 405.011 625.828 404.776C625.316 404.536 624.87 404.173 624.492 403.688C624.113 403.203 623.817 402.589 623.604 401.848C623.39 401.101 623.284 400.224 623.284 399.216C623.284 398.203 623.39 397.325 623.604 396.584C623.817 395.843 624.113 395.229 624.492 394.744C624.87 394.259 625.316 393.899 625.828 393.664C626.345 393.424 626.905 393.304 627.508 393.304C628.11 393.304 628.67 393.424 629.188 393.664C629.71 393.899 630.161 394.259 630.54 394.744C630.924 395.229 631.222 395.843 631.436 396.584C631.654 397.325 631.764 398.203 631.764 399.216ZM629.724 399.216C629.724 398.379 629.662 397.685 629.54 397.136C629.417 396.587 629.252 396.149 629.044 395.824C628.841 395.499 628.606 395.272 628.34 395.144C628.073 395.011 627.796 394.944 627.508 394.944C627.225 394.944 626.95 395.011 626.684 395.144C626.422 395.272 626.19 395.499 625.988 395.824C625.785 396.149 625.622 396.587 625.5 397.136C625.382 397.685 625.324 398.379 625.324 399.216C625.324 400.053 625.382 400.747 625.5 401.296C625.622 401.845 625.785 402.283 625.988 402.608C626.19 402.933 626.422 403.163 626.684 403.296C626.95 403.424 627.225 403.488 627.508 403.488C627.796 403.488 628.073 403.424 628.34 403.296C628.606 403.163 628.841 402.933 629.044 402.608C629.252 402.283 629.417 401.845 629.54 401.296C629.662 400.747 629.724 400.053 629.724 399.216Z" fill="#254AC7"/>
<path d="M441.848 403.16C442.061 403.16 442.229 403.221 442.352 403.344C442.48 403.461 442.544 403.619 442.544 403.816V405H434.608V404.344C434.608 404.211 434.635 404.072 434.688 403.928C434.747 403.779 434.837 403.645 434.96 403.528L438.472 400.008C438.765 399.709 439.027 399.424 439.256 399.152C439.491 398.88 439.685 398.611 439.84 398.344C439.995 398.077 440.112 397.808 440.192 397.536C440.277 397.259 440.32 396.968 440.32 396.664C440.32 396.387 440.28 396.144 440.2 395.936C440.12 395.723 440.005 395.544 439.856 395.4C439.712 395.256 439.536 395.149 439.328 395.08C439.125 395.005 438.896 394.968 438.64 394.968C438.405 394.968 438.187 395.003 437.984 395.072C437.787 395.136 437.611 395.229 437.456 395.352C437.301 395.469 437.171 395.608 437.064 395.768C436.957 395.928 436.877 396.104 436.824 396.296C436.733 396.541 436.616 396.704 436.472 396.784C436.328 396.864 436.12 396.883 435.848 396.84L434.808 396.656C434.888 396.101 435.043 395.616 435.272 395.2C435.501 394.779 435.787 394.429 436.128 394.152C436.475 393.869 436.869 393.659 437.312 393.52C437.76 393.376 438.24 393.304 438.752 393.304C439.285 393.304 439.773 393.384 440.216 393.544C440.659 393.699 441.037 393.92 441.352 394.208C441.667 394.496 441.912 394.843 442.088 395.248C442.264 395.653 442.352 396.104 442.352 396.6C442.352 397.027 442.288 397.421 442.16 397.784C442.037 398.147 441.869 398.493 441.656 398.824C441.448 399.155 441.203 399.475 440.92 399.784C440.637 400.093 440.341 400.408 440.032 400.728L437.424 403.392C437.675 403.317 437.923 403.261 438.168 403.224C438.419 403.181 438.656 403.16 438.88 403.16H441.848ZM451.841 399.216C451.841 400.224 451.732 401.101 451.513 401.848C451.3 402.589 451.001 403.203 450.617 403.688C450.239 404.173 449.788 404.536 449.265 404.776C448.748 405.011 448.188 405.128 447.585 405.128C446.983 405.128 446.423 405.011 445.905 404.776C445.393 404.536 444.948 404.173 444.569 403.688C444.191 403.203 443.895 402.589 443.681 401.848C443.468 401.101 443.361 400.224 443.361 399.216C443.361 398.203 443.468 397.325 443.681 396.584C443.895 395.843 444.191 395.229 444.569 394.744C444.948 394.259 445.393 393.899 445.905 393.664C446.423 393.424 446.983 393.304 447.585 393.304C448.188 393.304 448.748 393.424 449.265 393.664C449.788 393.899 450.239 394.259 450.617 394.744C451.001 395.229 451.3 395.843 451.513 396.584C451.732 397.325 451.841 398.203 451.841 399.216ZM449.801 399.216C449.801 398.379 449.74 397.685 449.617 397.136C449.495 396.587 449.329 396.149 449.121 395.824C448.919 395.499 448.684 395.272 448.417 395.144C448.151 395.011 447.873 394.944 447.585 394.944C447.303 394.944 447.028 395.011 446.761 395.144C446.5 395.272 446.268 395.499 446.065 395.824C445.863 396.149 445.7 396.587 445.577 397.136C445.46 397.685 445.401 398.379 445.401 399.216C445.401 400.053 445.46 400.747 445.577 401.296C445.7 401.845 445.863 402.283 446.065 402.608C446.268 402.933 446.5 403.163 446.761 403.296C447.028 403.424 447.303 403.488 447.585 403.488C447.873 403.488 448.151 403.424 448.417 403.296C448.684 403.163 448.919 402.933 449.121 402.608C449.329 402.283 449.495 401.845 449.617 401.296C449.74 400.747 449.801 400.053 449.801 399.216ZM460.203 403.52V405H453.803V403.52H456.147V396.776C456.147 396.509 456.155 396.235 456.171 395.952L454.507 397.344C454.411 397.419 454.315 397.467 454.219 397.488C454.128 397.504 454.04 397.504 453.955 397.488C453.875 397.472 453.803 397.445 453.739 397.408C453.675 397.365 453.627 397.32 453.595 397.272L452.971 396.416L456.499 393.416H458.123V403.52H460.203ZM463.524 396.904C463.524 397.549 463.689 398.043 464.02 398.384C464.356 398.72 464.83 398.888 465.444 398.888C465.764 398.888 466.049 398.837 466.3 398.736C466.55 398.635 466.761 398.496 466.932 398.32C467.102 398.144 467.23 397.936 467.316 397.696C467.406 397.456 467.452 397.197 467.452 396.92C467.452 396.605 467.404 396.325 467.308 396.08C467.212 395.829 467.076 395.619 466.9 395.448C466.724 395.277 466.513 395.147 466.268 395.056C466.028 394.965 465.764 394.92 465.476 394.92C465.177 394.92 464.908 394.971 464.668 395.072C464.428 395.168 464.222 395.304 464.052 395.48C463.881 395.656 463.75 395.867 463.66 396.112C463.569 396.352 463.524 396.616 463.524 396.904ZM466.148 400.512C466.238 400.4 466.324 400.291 466.404 400.184C466.484 400.077 466.561 399.971 466.636 399.864C466.369 400.035 466.076 400.165 465.756 400.256C465.436 400.341 465.1 400.384 464.748 400.384C464.348 400.384 463.956 400.315 463.572 400.176C463.188 400.037 462.846 399.829 462.548 399.552C462.249 399.269 462.006 398.923 461.82 398.512C461.638 398.096 461.548 397.611 461.548 397.056C461.548 396.539 461.644 396.053 461.836 395.6C462.028 395.147 462.297 394.749 462.644 394.408C462.99 394.067 463.406 393.797 463.892 393.6C464.377 393.403 464.913 393.304 465.5 393.304C466.092 393.304 466.622 393.397 467.092 393.584C467.566 393.771 467.969 394.032 468.3 394.368C468.636 394.704 468.892 395.107 469.068 395.576C469.249 396.045 469.34 396.56 469.34 397.12C469.34 397.477 469.308 397.816 469.244 398.136C469.185 398.456 469.1 398.765 468.988 399.064C468.876 399.357 468.74 399.645 468.58 399.928C468.42 400.211 468.241 400.491 468.044 400.768L465.396 404.544C465.305 404.672 465.169 404.781 464.988 404.872C464.806 404.957 464.601 405 464.372 405H462.556L466.148 400.512Z" fill="#254AC7"/>
<path d="M282.848 403.16C283.061 403.16 283.229 403.221 283.352 403.344C283.48 403.461 283.544 403.619 283.544 403.816V405H275.608V404.344C275.608 404.211 275.635 404.072 275.688 403.928C275.747 403.779 275.837 403.645 275.96 403.528L279.472 400.008C279.765 399.709 280.027 399.424 280.256 399.152C280.491 398.88 280.685 398.611 280.84 398.344C280.995 398.077 281.112 397.808 281.192 397.536C281.277 397.259 281.32 396.968 281.32 396.664C281.32 396.387 281.28 396.144 281.2 395.936C281.12 395.723 281.005 395.544 280.856 395.4C280.712 395.256 280.536 395.149 280.328 395.08C280.125 395.005 279.896 394.968 279.64 394.968C279.405 394.968 279.187 395.003 278.984 395.072C278.787 395.136 278.611 395.229 278.456 395.352C278.301 395.469 278.171 395.608 278.064 395.768C277.957 395.928 277.877 396.104 277.824 396.296C277.733 396.541 277.616 396.704 277.472 396.784C277.328 396.864 277.12 396.883 276.848 396.84L275.808 396.656C275.888 396.101 276.043 395.616 276.272 395.2C276.501 394.779 276.787 394.429 277.128 394.152C277.475 393.869 277.869 393.659 278.312 393.52C278.76 393.376 279.24 393.304 279.752 393.304C280.285 393.304 280.773 393.384 281.216 393.544C281.659 393.699 282.037 393.92 282.352 394.208C282.667 394.496 282.912 394.843 283.088 395.248C283.264 395.653 283.352 396.104 283.352 396.6C283.352 397.027 283.288 397.421 283.16 397.784C283.037 398.147 282.869 398.493 282.656 398.824C282.448 399.155 282.203 399.475 281.92 399.784C281.637 400.093 281.341 400.408 281.032 400.728L278.424 403.392C278.675 403.317 278.923 403.261 279.168 403.224C279.419 403.181 279.656 403.16 279.88 403.16H282.848ZM292.841 399.216C292.841 400.224 292.732 401.101 292.513 401.848C292.3 402.589 292.001 403.203 291.617 403.688C291.239 404.173 290.788 404.536 290.265 404.776C289.748 405.011 289.188 405.128 288.585 405.128C287.983 405.128 287.423 405.011 286.905 404.776C286.393 404.536 285.948 404.173 285.569 403.688C285.191 403.203 284.895 402.589 284.681 401.848C284.468 401.101 284.361 400.224 284.361 399.216C284.361 398.203 284.468 397.325 284.681 396.584C284.895 395.843 285.191 395.229 285.569 394.744C285.948 394.259 286.393 393.899 286.905 393.664C287.423 393.424 287.983 393.304 288.585 393.304C289.188 393.304 289.748 393.424 290.265 393.664C290.788 393.899 291.239 394.259 291.617 394.744C292.001 395.229 292.3 395.843 292.513 396.584C292.732 397.325 292.841 398.203 292.841 399.216ZM290.801 399.216C290.801 398.379 290.74 397.685 290.617 397.136C290.495 396.587 290.329 396.149 290.121 395.824C289.919 395.499 289.684 395.272 289.417 395.144C289.151 395.011 288.873 394.944 288.585 394.944C288.303 394.944 288.028 395.011 287.761 395.144C287.5 395.272 287.268 395.499 287.065 395.824C286.863 396.149 286.7 396.587 286.577 397.136C286.46 397.685 286.401 398.379 286.401 399.216C286.401 400.053 286.46 400.747 286.577 401.296C286.7 401.845 286.863 402.283 287.065 402.608C287.268 402.933 287.5 403.163 287.761 403.296C288.028 403.424 288.303 403.488 288.585 403.488C288.873 403.488 289.151 403.424 289.417 403.296C289.684 403.163 289.919 402.933 290.121 402.608C290.329 402.283 290.495 401.845 290.617 401.296C290.74 400.747 290.801 400.053 290.801 399.216ZM301.203 403.52V405H294.803V403.52H297.147V396.776C297.147 396.509 297.155 396.235 297.171 395.952L295.507 397.344C295.411 397.419 295.315 397.467 295.219 397.488C295.128 397.504 295.04 397.504 294.955 397.488C294.875 397.472 294.803 397.445 294.739 397.408C294.675 397.365 294.627 397.32 294.595 397.272L293.971 396.416L297.499 393.416H299.123V403.52H301.203ZM306.524 403.584C306.849 403.584 307.134 403.539 307.38 403.448C307.625 403.352 307.83 403.221 307.996 403.056C308.166 402.891 308.294 402.693 308.38 402.464C308.465 402.235 308.508 401.987 308.508 401.72C308.508 401.085 308.332 400.605 307.98 400.28C307.628 399.955 307.142 399.792 306.524 399.792C305.905 399.792 305.42 399.955 305.068 400.28C304.716 400.605 304.54 401.085 304.54 401.72C304.54 401.987 304.582 402.235 304.668 402.464C304.753 402.693 304.878 402.891 305.044 403.056C305.214 403.221 305.422 403.352 305.668 403.448C305.913 403.539 306.198 403.584 306.524 403.584ZM306.524 394.792C306.23 394.792 305.977 394.837 305.764 394.928C305.55 395.019 305.372 395.141 305.228 395.296C305.089 395.445 304.985 395.619 304.916 395.816C304.852 396.013 304.82 396.221 304.82 396.44C304.82 396.669 304.846 396.893 304.9 397.112C304.958 397.325 305.054 397.517 305.188 397.688C305.321 397.853 305.497 397.987 305.716 398.088C305.934 398.189 306.204 398.24 306.524 398.24C306.844 398.24 307.113 398.189 307.332 398.088C307.55 397.987 307.726 397.853 307.86 397.688C307.993 397.517 308.086 397.325 308.14 397.112C308.198 396.893 308.228 396.669 308.228 396.44C308.228 396.221 308.193 396.013 308.124 395.816C308.054 395.619 307.95 395.445 307.812 395.296C307.673 395.141 307.497 395.019 307.284 394.928C307.07 394.837 306.817 394.792 306.524 394.792ZM308.476 398.968C309.18 399.197 309.7 399.549 310.036 400.024C310.372 400.493 310.54 401.069 310.54 401.752C310.54 402.264 310.441 402.728 310.244 403.144C310.052 403.56 309.78 403.915 309.428 404.208C309.076 404.501 308.652 404.728 308.156 404.888C307.665 405.048 307.121 405.128 306.524 405.128C305.926 405.128 305.38 405.048 304.884 404.888C304.393 404.728 303.972 404.501 303.62 404.208C303.268 403.915 302.993 403.56 302.796 403.144C302.604 402.728 302.508 402.264 302.508 401.752C302.508 401.069 302.676 400.493 303.012 400.024C303.348 399.549 303.868 399.197 304.572 398.968C304.012 398.733 303.59 398.4 303.308 397.968C303.03 397.536 302.892 397.016 302.892 396.408C302.892 395.971 302.98 395.563 303.156 395.184C303.337 394.805 303.588 394.477 303.908 394.2C304.228 393.917 304.609 393.699 305.052 393.544C305.5 393.384 305.99 393.304 306.524 393.304C307.057 393.304 307.545 393.384 307.988 393.544C308.436 393.699 308.82 393.917 309.14 394.2C309.46 394.477 309.708 394.805 309.884 395.184C310.065 395.563 310.156 395.971 310.156 396.408C310.156 397.016 310.014 397.536 309.732 397.968C309.454 398.4 309.036 398.733 308.476 398.968Z" fill="#254AC7"/>
<rect opacity="0.6" x="997" y="231" width="10" height="131" rx="4" fill="#254BC7"/>
<rect x="997" y="316" width="10" height="46" rx="4" fill="#254AC7"/>
<rect opacity="0.6" x="979" y="195" width="10" height="167" rx="4" fill="#254BC7"/>
<rect x="979" y="322" width="10" height="40" rx="4" fill="#254AC7"/>
<rect opacity="0.6" x="961" y="160" width="10" height="202" rx="4" fill="#254BC7"/>
<rect x="961" y="316" width="10" height="46" rx="4" fill="#254AC7"/>
<rect opacity="0.6" x="943" y="151" width="10" height="211" rx="4" fill="#254BC7"/>
<rect x="943" y="322" width="10" height="40" rx="4" fill="#254AC7"/>
<rect opacity="0.6" x="925" y="160" width="10" height="202" rx="4" fill="#254BC7"/>
<rect x="925" y="316" width="10" height="46" rx="4" fill="#254AC7"/>
<rect opacity="0.6" x="907" y="138" width="10" height="224" rx="4" fill="#254BC7"/>
<rect x="907" y="316" width="10" height="46" rx="4" fill="#254AC7"/>
<rect opacity="0.6" x="889" y="108" width="10" height="254" rx="4" fill="#254BC7"/>
<rect x="889" y="322" width="10" height="40" rx="4" fill="#254AC7"/>
<rect opacity="0.6" x="871" y="55" width="10" height="307" rx="4" fill="#254BC7"/>
<rect x="871" y="312" width="10" height="50" rx="4" fill="#254AC7"/>
<rect opacity="0.6" x="853" y="86" width="10" height="276" rx="4" fill="#254BC7"/>
<rect x="853" y="300" width="10" height="62" rx="4" fill="#254AC7"/>
<rect opacity="0.6" x="835" y="98" width="10" height="264" rx="4" fill="#254BC7"/>
<rect x="835" y="312" width="10" height="50" rx="4" fill="#254AC7"/>
<rect opacity="0.6" x="817" y="108" width="10" height="254" rx="4" fill="#254BC7"/>
<rect x="817" y="294" width="10" height="68" rx="4" fill="#254AC7"/>
<rect opacity="0.6" x="799" y="120" width="10" height="242" rx="4" fill="#254BC7"/>
<rect x="799" y="304" width="10" height="58" rx="4" fill="#254AC7"/>
<rect opacity="0.6" x="781" y="170" width="10" height="192" rx="4" fill="#254BC7"/>
<rect x="781" y="294" width="10" height="68" rx="4" fill="#254AC7"/>
<rect opacity="0.6" x="763" y="138" width="10" height="224" rx="4" fill="#254BC7"/>
<rect x="763" y="303.629" width="10" height="58.3713" rx="4" fill="#254AC7"/>
<rect opacity="0.6" x="745" y="129" width="10" height="233" rx="4" fill="#254BC7"/>
<rect x="745" y="300" width="10" height="62" rx="4" fill="#254AC7"/>
<rect opacity="0.6" x="727" y="195" width="10" height="167" rx="4" fill="#254BC7"/>
<rect x="727" y="304" width="10" height="58" rx="4" fill="#254AC7"/>
<rect opacity="0.6" x="709" y="170" width="10" height="192" rx="4" fill="#254BC7"/>
<rect x="709" y="316" width="10" height="46" rx="4" fill="#254AC7"/>
<rect opacity="0.6" x="691" y="160" width="10" height="202" rx="4" fill="#254BC7"/>
<rect x="691" y="322" width="10" height="40" rx="4" fill="#254AC7"/>
<rect opacity="0.6" x="673" y="151" width="10" height="211" rx="4" fill="#254BC7"/>
<rect x="673" y="330" width="10" height="32" rx="4" fill="#254AC7"/>
<rect opacity="0.6" x="655" y="138" width="10" height="224" rx="4" fill="#254BC7"/>
<rect x="655" y="322" width="10" height="40" rx="4" fill="#254AC7"/>
<rect opacity="0.6" x="637" y="170" width="10" height="192" rx="4" fill="#254BC7"/>
<rect x="637" y="330" width="10" height="32" rx="4" fill="#254AC7"/>
<rect opacity="0.6" x="619" y="189" width="10" height="173" rx="4" fill="#254BC7"/>
<rect x="619" y="330" width="10" height="32" rx="4" fill="#254AC7"/>
<rect opacity="0.6" x="601" y="155" width="10" height="207" rx="4" fill="#254BC7"/>
<rect x="601" y="322" width="10" height="40" rx="4" fill="#254AC7"/>
<rect opacity="0.6" x="583" y="177" width="10" height="185" rx="4" fill="#254BC7"/>
<rect x="583" y="330" width="10" height="32" rx="4" fill="#254AC7"/>
<rect opacity="0.6" x="565" y="138" width="10" height="224" rx="4" fill="#254BC7"/>
<rect x="565" y="334" width="10" height="28" rx="4" fill="#254AC7"/>
<rect opacity="0.6" x="547" y="202" width="10" height="160" rx="4" fill="#254BC7"/>
<rect x="547" y="340" width="10" height="22" rx="4" fill="#254AC7"/>
<rect opacity="0.6" x="529" y="170" width="10" height="192" rx="4" fill="#254BC7"/>
<rect x="529" y="330" width="10" height="32" rx="4" fill="#254AC7"/>
<rect opacity="0.6" x="511" y="151" width="10" height="211" rx="4" fill="#254BC7"/>
<rect x="511" y="322" width="10" height="40" rx="4" fill="#254AC7"/>
<rect opacity="0.6" x="493" y="151" width="10" height="211" rx="4" fill="#254BC7"/>
<rect x="493" y="322" width="10" height="40" rx="4" fill="#254AC7"/>
<rect opacity="0.6" x="475" y="155" width="10" height="207" rx="4" fill="#254BC7"/>
<rect x="475" y="330" width="10" height="32" rx="4" fill="#254AC7"/>
<rect opacity="0.6" x="457" y="160" width="10" height="202" rx="4" fill="#254BC7"/>
<rect x="457" y="334" width="10" height="28" rx="4" fill="#254AC7"/>
<rect opacity="0.6" x="439" y="216" width="10" height="146" rx="4" fill="#254BC7"/>
<rect x="439" y="340" width="10" height="22" rx="4" fill="#254AC7"/>
<rect opacity="0.6" x="421" y="189" width="10" height="173" rx="4" fill="#254BC7"/>
<rect x="421" y="334" width="10" height="28" rx="4" fill="#254AC7"/>
<rect opacity="0.6" x="403" y="202" width="10" height="160" rx="4" fill="#254BC7"/>
<rect x="403" y="340" width="10" height="22" rx="4" fill="#254AC7"/>
<rect opacity="0.6" x="385" y="239" width="10" height="123" rx="4" fill="#254BC7"/>
<rect x="385" y="347" width="10" height="15" rx="4" fill="#254AC7"/>
<rect opacity="0.6" x="367" y="224" width="10" height="138" rx="4" fill="#254BC7"/>
<rect x="367" y="340" width="10" height="22" rx="4" fill="#254AC7"/>
<rect opacity="0.6" x="349" y="239" width="10" height="123" rx="4" fill="#254BC7"/>
<rect x="349" y="347" width="10" height="15" rx="4" fill="#254AC7"/>
<rect opacity="0.6" x="331" y="235" width="10" height="127" rx="4" fill="#254BC7"/>
<rect x="331" y="343" width="10" height="19" rx="4" fill="#254AC7"/>
<rect opacity="0.6" x="313" y="235" width="10" height="127" rx="4" fill="#254BC7"/>
<rect x="313" y="343" width="10" height="19" rx="4" fill="#254AC7"/>
<rect opacity="0.6" x="295" y="239" width="10" height="123" rx="4" fill="#254BC7"/>
<rect x="295" y="343" width="10" height="19" rx="4" fill="#254AC7"/>
<rect opacity="0.6" x="277" y="252" width="10" height="110" rx="4" fill="#254BC7"/>
<rect x="277" y="347" width="10" height="15" rx="4" fill="#254AC7"/>
<rect opacity="0.6" x="259" y="216" width="10" height="146" rx="4" fill="#254BC7"/>
<rect x="259" y="340" width="10" height="22" rx="4" fill="#254AC7"/>
<rect opacity="0.6" x="241" y="246" width="10" height="116" rx="4" fill="#254BC7"/>
<rect x="241" y="347" width="10" height="15" rx="4" fill="#254AC7"/>
<rect opacity="0.6" x="223" y="295" width="10" height="67" rx="4" fill="#254BC7"/>
<rect x="223" y="343" width="10" height="19" rx="4" fill="#254AC7"/>
<rect opacity="0.6" x="205" y="288" width="10" height="74" rx="4" fill="#254BC7"/>
<rect x="205" y="337" width="10" height="25" rx="4" fill="#254AC7"/>
<rect opacity="0.6" x="187" y="328" width="10" height="34" rx="4" fill="#254BC7"/>
<rect x="187" y="347" width="10" height="15" rx="4" fill="#254AC7"/>
<rect opacity="0.6" x="169" y="307" width="10" height="55" rx="4" fill="#254BC7"/>
<rect x="169" y="343" width="10" height="19" rx="4" fill="#254AC7"/>
<rect opacity="0.6" x="151" y="323" width="10" height="39" rx="4" fill="#254BC7"/>
<rect x="151" y="347" width="10" height="15" rx="4" fill="#254AC7"/>
<rect opacity="0.6" x="133" y="314" width="10" height="48" rx="4" fill="#254BC7"/>
<rect x="133" y="340" width="10" height="22" rx="4" fill="#254AC7"/>
<rect opacity="0.6" x="115" y="323" width="10" height="39" rx="4" fill="#254BC7"/>
<rect x="115" y="340" width="10" height="22" rx="4" fill="#254AC7"/>
<rect opacity="0.6" x="97" y="328" width="10" height="34" rx="4" fill="#254BC7"/>
<rect x="97" y="343" width="10" height="19" rx="4" fill="#254AC7"/>
<rect opacity="0.6" x="79" y="337" width="10" height="25" rx="4" fill="#254BC7"/>
<rect x="79" y="343" width="10" height="19" rx="4" fill="#254AC7"/>
<defs>
<filter id="filter0_d_12_174" x="0" y="0" width="1102" height="472" filterUnits="userSpaceOnUse" color-interpolation-filters="sRGB">
<feFlood flood-opacity="0" result="BackgroundImageFix"/>
<feColorMatrix in="SourceAlpha" type="matrix" values="0 0 0 0 0 0 0 0 0 0 0 0 0 0 0 0 0 0 127 0" result="hardAlpha"/>
<feOffset dx="4" dy="4"/>
<feGaussianBlur stdDeviation="15"/>
<feComposite in2="hardAlpha" operator="out"/>
<feColorMatrix type="matrix" values="0 0 0 0 0 0 0 0 0 0.321569 0 0 0 0 1 0 0 0 0.1 0"/>
<feBlend mode="normal" in2="BackgroundImageFix" result="effect1_dropShadow_12_174"/>
<feBlend mode="normal" in="SourceGraphic" in2="effect1_dropShadow_12_174" result="shape"/>
</filter>
</defs>
</svg>
